<?xml version="1.0" encoding="UTF-8"?>
<!DOCTYPE svg PUBLIC "-//W3C//DTD SVG 1.1//EN" "http://www.w3.org/Graphics/SVG/1.1/DTD/svg11.dtd">
<svg xmlns="http://www.w3.org/2000/svg" version="1.1" width="732px" height="244px" style="shape-rendering:geometricPrecision; text-rendering:geometricPrecision; image-rendering:optimizeQuality; fill-rule:evenodd; clip-rule:evenodd" xmlns:xlink="http://www.w3.org/1999/xlink">
<g><path style="opacity:0.852" fill="#f3f3f8" d="M -0.5,136.5 C -0.5,126.833 -0.5,117.167 -0.5,107.5C 8.98335,59.8503 37.65,31.3503 85.5,22C 127.16,17.7538 159.994,32.5872 184,66.5C 200.397,93.8388 204.064,122.839 195,153.5C 180.666,190.828 153.833,213.328 114.5,221C 72.4293,225.539 39.2626,210.706 15,176.5C 7.26394,164.05 2.09728,150.716 -0.5,136.5 Z"/></g>
<g><path style="opacity:1" fill="#0e0e3e" d="M 157.5,45.5 C 146.5,45.5 135.5,45.5 124.5,45.5C 107.658,45.1702 90.9916,45.5035 74.5,46.5C 63.5813,45.5234 52.5813,45.1901 41.5,45.5C 68.823,25.3281 98.823,20.4948 131.5,31C 141.296,34.0586 149.963,38.8919 157.5,45.5 Z"/></g>
<g><path style="opacity:1" fill="#f9fbfc" d="M 614.5,42.5 C 616.911,42.1367 618.411,43.1367 619,45.5C 625.667,62.1667 632.333,78.8333 639,95.5C 640.811,97.5433 642.978,99.0433 645.5,100C 637.167,100.667 628.833,100.667 620.5,100C 623.507,99.4468 625.507,97.7801 626.5,95C 624.639,89.4459 622.639,83.9459 620.5,78.5C 614.872,77.5046 609.206,77.1712 603.5,77.5C 601.706,83.5497 599.706,89.5497 597.5,95.5C 598.924,97.7178 600.924,99.2178 603.5,100C 598.167,100.667 592.833,100.667 587.5,100C 589.377,98.8147 591.377,97.8147 593.5,97C 601.189,79.1009 608.189,60.9342 614.5,42.5 Z M 611.5,56.5 C 614.262,62.534 616.928,68.7006 619.5,75C 614.5,75.6667 609.5,75.6667 604.5,75C 607.13,68.9431 609.463,62.7765 611.5,56.5 Z"/></g>
<g><path style="opacity:1" fill="#f9fbfc" d="M 248.5,44.5 C 256.656,43.3434 264.99,43.1768 273.5,44C 270.506,44.4057 268.339,45.9057 267,48.5C 266.333,63.5 266.333,78.5 267,93.5C 267.833,95.6667 269.333,97.1667 271.5,98C 275.5,98.6667 279.5,98.6667 283.5,98C 289.447,96.3868 292.947,92.5535 294,86.5C 294.169,91.1609 294.003,95.8276 293.5,100.5C 278.496,100.667 263.496,100.5 248.5,100C 250.448,99.0168 252.282,97.8502 254,96.5C 254.667,79.8333 254.667,63.1667 254,46.5C 252.416,45.1387 250.582,44.472 248.5,44.5 Z"/></g>
<g><path style="opacity:1" fill="#fafbfe" d="M 316.5,44.5 C 324.656,43.3434 332.99,43.1768 341.5,44C 337.961,44.3358 335.794,46.1691 335,49.5C 334.333,64.5 334.333,79.5 335,94.5C 336.299,97.374 338.465,99.2073 341.5,100C 333.155,99.4943 324.822,99.4943 316.5,100C 319.386,99.3939 321.552,97.8939 323,95.5C 323.667,79.8333 323.667,64.1667 323,48.5C 321.728,45.7776 319.561,44.4443 316.5,44.5 Z"/></g>
<g><path style="opacity:1" fill="#fafbfc" d="M 365.5,44.5 C 371.568,43.1742 377.734,43.1742 384,44.5C 389.133,58.0949 394.8,71.4282 401,84.5C 406.598,71.207 412.098,57.8737 417.5,44.5C 423.472,43.3364 429.472,43.1697 435.5,44C 433.269,44.622 431.435,45.7887 430,47.5C 429.333,63.8333 429.333,80.1667 430,96.5C 431.718,97.8502 433.552,99.0168 435.5,100C 427.178,99.4943 418.845,99.4943 410.5,100C 413.386,99.3939 415.552,97.8939 417,95.5C 417.667,81.1667 417.667,66.8333 417,52.5C 409.815,68.2213 403.315,84.2213 397.5,100.5C 396.178,100.67 395.011,100.337 394,99.5C 387.667,83.8333 381.333,68.1667 375,52.5C 374.333,67.1667 374.333,81.8333 375,96.5C 376.932,98.0383 379.099,99.205 381.5,100C 376.167,100.667 370.833,100.667 365.5,100C 369,99.1667 371.167,97 372,93.5C 372.167,86.3333 372.333,79.1667 372.5,72C 372.604,63.4415 372.104,54.9415 371,46.5C 369.416,45.1387 367.582,44.472 365.5,44.5 Z"/></g>
<g><path style="opacity:1" fill="#fafbfe" d="M 459.5,44.5 C 467.99,43.3431 476.657,43.1764 485.5,44C 482.966,44.5163 480.8,45.683 479,47.5C 478.333,63.8333 478.333,80.1667 479,96.5C 480.932,98.0383 483.099,99.205 485.5,100C 476.811,99.6554 468.144,99.6554 459.5,100C 461.901,99.205 464.068,98.0383 466,96.5C 466.667,80.1667 466.667,63.8333 466,47.5C 464.266,45.5494 462.099,44.5494 459.5,44.5 Z"/></g>
<g><path style="opacity:1" fill="#fafbfd" d="M 508.5,44.5 C 513.985,43.3483 519.651,43.1816 525.5,44C 536.692,56.8906 547.525,70.0572 558,83.5C 558.667,71.5 558.667,59.5 558,47.5C 556.2,45.683 554.034,44.5163 551.5,44C 556.833,43.3333 562.167,43.3333 567.5,44C 564.506,44.4057 562.339,45.9057 561,48.5C 560.5,66.1635 560.333,83.8302 560.5,101.5C 557.956,100.532 555.789,98.8655 554,96.5C 542.573,81.9832 530.906,67.6499 519,53.5C 518.333,67.1667 518.333,80.8333 519,94.5C 520.198,97.3662 522.365,99.1995 525.5,100C 520.167,100.667 514.833,100.667 509.5,100C 511.901,99.205 514.068,98.0383 516,96.5C 516.667,80.8333 516.667,65.1667 516,49.5C 514.143,46.8002 511.643,45.1335 508.5,44.5 Z"/></g>
<g><path style="opacity:1" fill="#fafbfd" d="M 665.5,44.5 C 673.99,43.3431 682.657,43.1764 691.5,44C 688.966,44.5163 686.8,45.683 685,47.5C 684.333,63.1667 684.333,78.8333 685,94.5C 686.214,96.0488 687.714,97.2155 689.5,98C 693.5,98.6667 697.5,98.6667 701.5,98C 707.249,96.372 710.582,92.5386 711.5,86.5C 711.641,90.9852 711.641,95.6519 711.5,100.5C 696.163,100.667 680.83,100.5 665.5,100C 667.901,99.205 670.068,98.0383 672,96.5C 672.667,80.1667 672.667,63.8333 672,47.5C 670.266,45.5494 668.099,44.5494 665.5,44.5 Z"/></g>
<g><path style="opacity:1" fill="#0b0b34" d="M 41.5,45.5 C 52.5813,45.1901 63.5813,45.5234 74.5,46.5C 74.5,54.5 74.5,62.5 74.5,70.5C 57.8333,70.5 41.1667,70.5 24.5,70.5C 24.5,79.1667 24.5,87.8333 24.5,96.5C 18.642,96.8222 12.9753,96.4889 7.5,95.5C 12.8333,95.5 18.1667,95.5 23.5,95.5C 23.5,87.1667 23.5,78.8333 23.5,70.5C 21.8333,70.5 20.1667,70.5 18.5,70.5C 24.4101,60.5883 32.0768,52.2549 41.5,45.5 Z"/></g>
<g><path style="opacity:1" fill="#0b0b34" d="M 124.5,45.5 C 135.5,45.5 146.5,45.5 157.5,45.5C 166.923,52.2549 174.59,60.5883 180.5,70.5C 178.833,70.5 177.167,70.5 175.5,70.5C 175.5,78.8333 175.5,87.1667 175.5,95.5C 180.833,95.5 186.167,95.5 191.5,95.5C 191.5,95.8333 191.5,96.1667 191.5,96.5C 185.833,96.5 180.167,96.5 174.5,96.5C 174.5,87.8333 174.5,79.1667 174.5,70.5C 157.833,70.5 141.167,70.5 124.5,70.5C 124.5,62.1667 124.5,53.8333 124.5,45.5 Z"/></g>
<g><path style="opacity:1" fill="#3a1374" d="M 124.5,45.5 C 124.5,53.8333 124.5,62.1667 124.5,70.5C 107.833,70.5 91.1667,70.5 74.5,70.5C 74.5,62.5 74.5,54.5 74.5,46.5C 90.9916,45.5035 107.658,45.1702 124.5,45.5 Z"/></g>
<g><path style="opacity:1" fill="#0b0d2d" d="M 18.5,70.5 C 20.1667,70.5 21.8333,70.5 23.5,70.5C 23.5,78.8333 23.5,87.1667 23.5,95.5C 18.1667,95.5 12.8333,95.5 7.5,95.5C 9.82559,86.5039 13.4923,78.1706 18.5,70.5 Z"/></g>
<g><path style="opacity:1" fill="#3c1061" d="M 74.5,70.5 C 74.5,70.8333 74.5,71.1667 74.5,71.5C 66.1667,71.5 57.8333,71.5 49.5,71.5C 49.5,79.8333 49.5,88.1667 49.5,96.5C 41.1667,96.5 32.8333,96.5 24.5,96.5C 24.5,87.8333 24.5,79.1667 24.5,70.5C 41.1667,70.5 57.8333,70.5 74.5,70.5 Z"/></g>
<g><path style="opacity:1" fill="#af0e60" d="M 74.5,70.5 C 91.1667,70.5 107.833,70.5 124.5,70.5C 124.5,70.8333 124.5,71.1667 124.5,71.5C 116.167,71.5 107.833,71.5 99.5,71.5C 99.5,79.5 99.5,87.5 99.5,95.5C 91.1667,95.5 82.8333,95.5 74.5,95.5C 74.5,87.5 74.5,79.5 74.5,71.5C 74.5,71.1667 74.5,70.8333 74.5,70.5 Z"/></g>
<g><path style="opacity:1" fill="#fc1560" d="M 124.5,71.5 C 124.5,79.8333 124.5,88.1667 124.5,96.5C 116.167,96.5 107.833,96.5 99.5,96.5C 99.5,96.1667 99.5,95.8333 99.5,95.5C 99.5,87.5 99.5,79.5 99.5,71.5C 107.833,71.5 116.167,71.5 124.5,71.5 Z"/></g>
<g><path style="opacity:1" fill="#0b0c2c" d="M 180.5,70.5 C 185.892,77.9864 189.559,86.3197 191.5,95.5C 186.167,95.5 180.833,95.5 175.5,95.5C 175.5,87.1667 175.5,78.8333 175.5,70.5C 177.167,70.5 178.833,70.5 180.5,70.5 Z"/></g>
<g><path style="opacity:1" fill="#a32479" d="M 74.5,71.5 C 74.5,79.5 74.5,87.5 74.5,95.5C 82.8333,95.5 91.1667,95.5 99.5,95.5C 99.5,95.8333 99.5,96.1667 99.5,96.5C 91.1667,96.5 82.8333,96.5 74.5,96.5C 66.1667,96.5 57.8333,96.5 49.5,96.5C 49.5,88.1667 49.5,79.8333 49.5,71.5C 57.8333,71.5 66.1667,71.5 74.5,71.5 Z"/></g>
<g><path style="opacity:1" fill="#a22278" d="M 124.5,71.5 C 132.833,71.5 141.167,71.5 149.5,71.5C 149.5,79.8333 149.5,88.1667 149.5,96.5C 141.167,96.5 132.833,96.5 124.5,96.5C 124.5,88.1667 124.5,79.8333 124.5,71.5 Z"/></g>
<g><path style="opacity:1" fill="#3b1061" d="M 124.5,71.5 C 124.5,71.1667 124.5,70.8333 124.5,70.5C 141.167,70.5 157.833,70.5 174.5,70.5C 174.5,79.1667 174.5,87.8333 174.5,96.5C 166.5,96.5 158.5,96.5 150.5,96.5C 150.167,96.5 149.833,96.5 149.5,96.5C 149.5,88.1667 149.5,79.8333 149.5,71.5C 141.167,71.5 132.833,71.5 124.5,71.5 Z"/></g>
<g><path style="opacity:1" fill="#fc0b4c" d="M 49.5,96.5 C 57.8333,96.5 66.1667,96.5 74.5,96.5C 74.5,104.833 74.5,113.167 74.5,121.5C 66.1667,121.5 57.8333,121.5 49.5,121.5C 49.5,113.167 49.5,104.833 49.5,96.5 Z"/></g>
<g><path style="opacity:1" fill="#fefffe" d="M 74.5,96.5 C 82.8333,96.5 91.1667,96.5 99.5,96.5C 99.5,104.833 99.5,113.167 99.5,121.5C 91.1667,121.5 82.8333,121.5 74.5,121.5C 74.5,113.167 74.5,104.833 74.5,96.5 Z"/></g>
<g><path style="opacity:1" fill="#feffb5" d="M 99.5,96.5 C 107.833,96.5 116.167,96.5 124.5,96.5C 124.5,104.833 124.5,113.167 124.5,121.5C 116.167,121.5 107.833,121.5 99.5,121.5C 99.5,113.167 99.5,104.833 99.5,96.5 Z"/></g>
<g><path style="opacity:1" fill="#fd0b4c" d="M 124.5,96.5 C 132.833,96.5 141.167,96.5 149.5,96.5C 149.5,104.833 149.5,113.167 149.5,121.5C 141.167,121.5 132.833,121.5 124.5,121.5C 124.5,113.167 124.5,104.833 124.5,96.5 Z"/></g>
<g><path style="opacity:1" fill="#390e50" d="M 7.5,95.5 C 12.9753,96.4889 18.642,96.8222 24.5,96.5C 24.5,104.833 24.5,113.167 24.5,121.5C 17.5,121.5 10.5,121.5 3.5,121.5C 3.53843,112.494 4.87176,103.827 7.5,95.5 Z"/></g>
<g><path style="opacity:1" fill="#a01f67" d="M 24.5,96.5 C 32.8333,96.5 41.1667,96.5 49.5,96.5C 49.5,104.833 49.5,113.167 49.5,121.5C 41.1667,121.5 32.8333,121.5 24.5,121.5C 24.5,113.167 24.5,104.833 24.5,96.5 Z"/></g>
<g><path style="opacity:1" fill="#9f1f67" d="M 150.5,96.5 C 158.5,96.5 166.5,96.5 174.5,96.5C 174.5,104.833 174.5,113.167 174.5,121.5C 166.5,121.5 158.5,121.5 150.5,121.5C 150.5,113.167 150.5,104.833 150.5,96.5 Z"/></g>
<g><path style="opacity:1" fill="#390f51" d="M 174.5,96.5 C 180.167,96.5 185.833,96.5 191.5,96.5C 194.86,104.379 196.193,112.713 195.5,121.5C 188.5,121.5 181.5,121.5 174.5,121.5C 174.5,113.167 174.5,104.833 174.5,96.5 Z"/></g>
<g><path style="opacity:1" fill="#370a3d" d="M 3.5,121.5 C 10.5,121.5 17.5,121.5 24.5,121.5C 24.5,129.833 24.5,138.167 24.5,146.5C 18.8333,146.5 13.1667,146.5 7.5,146.5C 4.99756,138.481 3.66423,130.148 3.5,121.5 Z"/></g>
<g><path style="opacity:1" fill="#fed938" d="M 99.5,121.5 C 107.833,121.5 116.167,121.5 124.5,121.5C 124.5,129.833 124.5,138.167 124.5,146.5C 116.167,146.5 107.833,146.5 99.5,146.5C 99.5,138.167 99.5,129.833 99.5,121.5 Z"/></g>
<g><path style="opacity:1" fill="#370b3d" d="M 174.5,121.5 C 181.5,121.5 188.5,121.5 195.5,121.5C 195.544,130.186 194.21,138.52 191.5,146.5C 185.833,146.5 180.167,146.5 174.5,146.5C 174.5,138.167 174.5,129.833 174.5,121.5 Z"/></g>
<g><path style="opacity:1" fill="#9f1d57" d="M 24.5,121.5 C 32.8333,121.5 41.1667,121.5 49.5,121.5C 49.5,129.833 49.5,138.167 49.5,146.5C 41.1667,146.5 32.8333,146.5 24.5,146.5C 24.5,138.167 24.5,129.833 24.5,121.5 Z"/></g>
<g><path style="opacity:1" fill="#fc0838" d="M 49.5,121.5 C 57.8333,121.5 66.1667,121.5 74.5,121.5C 74.5,129.833 74.5,138.167 74.5,146.5C 66.1667,146.5 57.8333,146.5 49.5,146.5C 49.5,138.167 49.5,129.833 49.5,121.5 Z"/></g>
<g><path style="opacity:1" fill="#fe9138" d="M 74.5,121.5 C 82.8333,121.5 91.1667,121.5 99.5,121.5C 99.5,129.833 99.5,138.167 99.5,146.5C 91.1667,146.5 82.8333,146.5 74.5,146.5C 74.5,138.167 74.5,129.833 74.5,121.5 Z"/></g>
<g><path style="opacity:1" fill="#fc0838" d="M 124.5,121.5 C 132.833,121.5 141.167,121.5 149.5,121.5C 149.5,129.833 149.5,138.167 149.5,146.5C 141.167,146.5 132.833,146.5 124.5,146.5C 124.5,138.167 124.5,129.833 124.5,121.5 Z"/></g>
<g><path style="opacity:1" fill="#a01d57" d="M 149.5,96.5 C 149.833,96.5 150.167,96.5 150.5,96.5C 150.5,104.833 150.5,113.167 150.5,121.5C 158.5,121.5 166.5,121.5 174.5,121.5C 174.5,129.833 174.5,138.167 174.5,146.5C 166.167,146.5 157.833,146.5 149.5,146.5C 149.5,138.167 149.5,129.833 149.5,121.5C 149.5,113.167 149.5,104.833 149.5,96.5 Z"/></g>
<g><path style="opacity:1" fill="#fafbfd" d="M 406.5,134.5 C 424.793,132.717 436.96,140.384 443,157.5C 444.753,179.682 434.587,191.682 412.5,193.5C 390.631,191.451 380.798,179.451 383,157.5C 386.117,144.882 393.95,137.215 406.5,134.5 Z M 408.5,136.5 C 421.329,136.151 428.496,142.484 430,155.5C 431.011,163.983 430.344,172.316 428,180.5C 422.886,190.871 415.052,193.705 404.5,189C 399.715,184.931 396.881,179.764 396,173.5C 394.113,162.491 395.78,152.158 401,142.5C 403.114,139.879 405.614,137.879 408.5,136.5 Z"/></g>
<g><path style="opacity:1" fill="#fafbfd" d="M 493.5,134.5 C 515.081,132.936 527.414,142.77 530.5,164C 527.433,185.378 515.099,195.044 493.5,193C 476.208,189.042 468.041,178.208 469,160.5C 471.563,146.44 479.729,137.773 493.5,134.5 Z M 495.5,136.5 C 506.614,136.159 513.447,141.493 516,152.5C 518.484,163.177 517.484,173.511 513,183.5C 505.672,192.874 497.339,193.874 488,186.5C 480.602,173.717 479.602,160.384 485,146.5C 487.436,141.898 490.936,138.564 495.5,136.5 Z"/></g>
<g><path style="opacity:1" fill="#f9fbfc" d="M 248.5,136.5 C 262.323,135.504 276.323,135.171 290.5,135.5C 290.666,139.514 290.499,143.514 290,147.5C 287.877,139.556 282.711,136.223 274.5,137.5C 271.911,137.527 269.411,137.861 267,138.5C 266.5,146.493 266.334,154.493 266.5,162.5C 269.85,162.665 273.183,162.498 276.5,162C 278.038,160.068 279.205,157.901 280,155.5C 280.667,161.167 280.667,166.833 280,172.5C 278.124,165.639 273.624,162.972 266.5,164.5C 266.334,172.174 266.5,179.841 267,187.5C 268.448,189.894 270.614,191.394 273.5,192C 265.167,191.333 256.833,191.333 248.5,192C 250.448,191.017 252.282,189.85 254,188.5C 254.667,171.833 254.667,155.167 254,138.5C 252.416,137.139 250.582,136.472 248.5,136.5 Z"/></g>
<g><path style="opacity:1" fill="#fafbfd" d="M 313.5,136.5 C 321.656,135.343 329.99,135.177 338.5,136C 334.961,136.336 332.794,138.169 332,141.5C 331.065,156.888 331.398,172.221 333,187.5C 333.903,188.701 335.069,189.535 336.5,190C 347.768,193.118 355.268,189.285 359,178.5C 359.648,183.204 359.481,187.871 358.5,192.5C 343.496,192.667 328.496,192.5 313.5,192C 316.386,191.394 318.552,189.894 320,187.5C 320.667,171.833 320.667,156.167 320,140.5C 318.728,137.778 316.561,136.444 313.5,136.5 Z"/></g>
<g><path style="opacity:1" fill="#fafbfd" d="M 554.5,136.5 C 565.659,135.341 576.992,135.174 588.5,136C 600.436,139.039 603.936,146.206 599,157.5C 595.896,160.933 592.063,163.1 587.5,164C 592.879,171.257 598.379,178.423 604,185.5C 606.383,188.273 609.217,190.439 612.5,192C 606.833,192.667 601.167,192.667 595.5,192C 589.878,184.589 584.378,177.089 579,169.5C 577.736,167.393 575.903,166.393 573.5,166.5C 573.334,173.841 573.5,181.174 574,188.5C 575.932,190.038 578.099,191.205 580.5,192C 571.833,191.333 563.167,191.333 554.5,192C 557.386,191.394 559.552,189.894 561,187.5C 561.667,171.5 561.667,155.5 561,139.5C 559.266,137.549 557.099,136.549 554.5,136.5 Z M 574.5,137.5 C 583.911,136.37 588.578,140.537 588.5,150C 589.013,160.654 584.013,165.154 573.5,163.5C 573.197,154.749 573.53,146.082 574.5,137.5 Z"/></g>
<g><path style="opacity:1" fill="#340728" d="M 24.5,146.5 C 32.8333,146.5 41.1667,146.5 49.5,146.5C 49.5,154.833 49.5,163.167 49.5,171.5C 41.1667,171.5 32.8333,171.5 24.5,171.5C 24.5,163.167 24.5,154.833 24.5,146.5 Z"/></g>
<g><path style="opacity:1" fill="#9d1a46" d="M 49.5,146.5 C 57.8333,146.5 66.1667,146.5 74.5,146.5C 74.5,154.833 74.5,163.167 74.5,171.5C 66.1667,171.5 57.8333,171.5 49.5,171.5C 49.5,163.167 49.5,154.833 49.5,146.5 Z"/></g>
<g><path style="opacity:1" fill="#9d1a46" d="M 124.5,146.5 C 132.833,146.5 141.167,146.5 149.5,146.5C 149.5,154.833 149.5,163.167 149.5,171.5C 141.167,171.5 132.833,171.5 124.5,171.5C 124.5,163.167 124.5,154.833 124.5,146.5 Z"/></g>
<g><path style="opacity:1" fill="#340729" d="M 149.5,146.5 C 157.833,146.5 166.167,146.5 174.5,146.5C 174.5,154.833 174.5,163.167 174.5,171.5C 166.167,171.5 157.833,171.5 149.5,171.5C 149.5,163.167 149.5,154.833 149.5,146.5 Z"/></g>
<g><path style="opacity:1" fill="#fb0525" d="M 74.5,146.5 C 82.8333,146.5 91.1667,146.5 99.5,146.5C 107.833,146.5 116.167,146.5 124.5,146.5C 124.5,154.833 124.5,163.167 124.5,171.5C 107.833,171.5 91.1667,171.5 74.5,171.5C 74.5,163.167 74.5,154.833 74.5,146.5 Z"/></g>
<g><path style="opacity:1" fill="#02020a" d="M 7.5,146.5 C 13.1667,146.5 18.8333,146.5 24.5,146.5C 24.5,154.833 24.5,163.167 24.5,171.5C 32.8333,171.5 41.1667,171.5 49.5,171.5C 57.8333,171.5 66.1667,171.5 74.5,171.5C 74.5,179.833 74.5,188.167 74.5,196.5C 63.3206,196.172 52.3206,196.505 41.5,197.5C 23.9262,184.693 12.5928,167.693 7.5,146.5 Z"/></g>
<g><path style="opacity:1" fill="#02020a" d="M 174.5,146.5 C 180.167,146.5 185.833,146.5 191.5,146.5C 186.493,167.196 175.493,183.863 158.5,196.5C 147.167,196.5 135.833,196.5 124.5,196.5C 124.5,188.167 124.5,179.833 124.5,171.5C 132.833,171.5 141.167,171.5 149.5,171.5C 157.833,171.5 166.167,171.5 174.5,171.5C 174.5,163.167 174.5,154.833 174.5,146.5 Z"/></g>
<g><path style="opacity:1" fill="#310315" d="M 74.5,171.5 C 91.1667,171.5 107.833,171.5 124.5,171.5C 124.5,179.833 124.5,188.167 124.5,196.5C 107.833,196.5 91.1667,196.5 74.5,196.5C 74.5,188.167 74.5,179.833 74.5,171.5 Z"/></g>
<g><path style="opacity:1" fill="#020202" d="M 74.5,196.5 C 91.1667,196.5 107.833,196.5 124.5,196.5C 135.833,196.5 147.167,196.5 158.5,196.5C 141.49,210.396 121.823,217.396 99.5,217.5C 77.7402,217.36 58.4068,210.693 41.5,197.5C 52.3206,196.505 63.3206,196.172 74.5,196.5 Z"/></g>
</svg>
